<svg xmlns="http://www.w3.org/2000/svg" viewBox="0 0 1200 900" width="1200" height="900"><circle cx="190" cy="210" r="152" fill="#26262b"/><circle cx="190" cy="210" r="146" fill="none" stroke="#3a3a41" stroke-width="2"/><circle cx="190" cy="210" r="140" fill="#101014"/><path d="M 61.47 229.5 A 130 130 0 0 1 145.54 87.84" fill="none" stroke="#c62828" stroke-width="9" stroke-linecap="butt"/><path d="M 169.38 338.35 A 130 130 0 0 1 61.47 229.5" fill="none" stroke="#e8c53a" stroke-width="9" stroke-linecap="butt"/><path d="M 228.01 85.68 A 130 130 0 0 1 169.38 338.35" fill="none" stroke="#2e9e4f" stroke-width="9" stroke-linecap="butt"/><path d="M 190 94 A 116 116 0 0 1 305.44 221.37" fill="none" stroke="#f2f2f0" stroke-width="8" stroke-linecap="butt"/><line x1="190" y1="88" x2="190" y2="110" stroke="#f2f2f0" stroke-width="3.5" stroke-linecap="round"/><text x="190" y="132" fill="#f2f2f0" font-size="24" font-weight="500" font-family="Helvetica,Arial,sans-serif" text-anchor="middle" dominant-baseline="central">40</text><line x1="212.49" y1="90.09" x2="210.83" y2="98.94" stroke="#9a9a96" stroke-width="1.8" stroke-linecap="round"/><line x1="234.22" y1="96.3" x2="229.14" y2="109.34" stroke="#f2f2f0" stroke-width="2.5" stroke-linecap="round"/><line x1="254.42" y1="106.4" x2="249.67" y2="114.04" stroke="#9a9a96" stroke-width="1.8" stroke-linecap="round"/><line x1="272.42" y1="120.05" x2="257.56" y2="136.27" stroke="#f2f2f0" stroke-width="3.5" stroke-linecap="round"/><text x="242.7" y="152.49" fill="#f2f2f0" font-size="24" font-weight="500" font-family="Helvetica,Arial,sans-serif" text-anchor="middle" dominant-baseline="central">60</text><line x1="287.59" y1="136.79" x2="280.39" y2="142.19" stroke="#9a9a96" stroke-width="1.8" stroke-linecap="round"/><line x1="299.42" y1="156.04" x2="286.86" y2="162.23" stroke="#f2f2f0" stroke-width="2.5" stroke-linecap="round"/><line x1="307.49" y1="177.14" x2="298.82" y2="179.56" stroke="#9a9a96" stroke-width="1.8" stroke-linecap="round"/><line x1="311.54" y1="199.37" x2="289.62" y2="201.28" stroke="#f2f2f0" stroke-width="3.5" stroke-linecap="round"/><text x="267.7" y="203.2" fill="#f2f2f0" font-size="24" font-weight="500" font-family="Helvetica,Arial,sans-serif" text-anchor="middle" dominant-baseline="central">80</text><line x1="311.41" y1="221.96" x2="302.46" y2="221.08" stroke="#9a9a96" stroke-width="1.8" stroke-linecap="round"/><line x1="307.13" y1="244.14" x2="293.69" y2="240.22" stroke="#f2f2f0" stroke-width="2.5" stroke-linecap="round"/><line x1="298.82" y1="265.15" x2="290.8" y2="261.08" stroke="#9a9a96" stroke-width="1.8" stroke-linecap="round"/><line x1="286.79" y1="284.27" x2="269.34" y2="270.88" stroke="#f2f2f0" stroke-width="3.5" stroke-linecap="round"/><text x="251.88" y="257.48" fill="#f2f2f0" font-size="24" font-weight="500" font-family="Helvetica,Arial,sans-serif" text-anchor="middle" dominant-baseline="central">100</text><line x1="271.44" y1="300.84" x2="265.43" y2="294.14" stroke="#9a9a96" stroke-width="1.8" stroke-linecap="round"/><line x1="253.29" y1="314.3" x2="246.03" y2="302.33" stroke="#f2f2f0" stroke-width="2.5" stroke-linecap="round"/><line x1="232.97" y1="324.18" x2="229.8" y2="315.76" stroke="#9a9a96" stroke-width="1.8" stroke-linecap="round"/><line x1="211.19" y1="330.15" x2="207.36" y2="308.48" stroke="#f2f2f0" stroke-width="3.5" stroke-linecap="round"/><text x="203.54" y="286.82" fill="#f2f2f0" font-size="24" font-weight="500" font-family="Helvetica,Arial,sans-serif" text-anchor="middle" dominant-baseline="central">120</text><line x1="188.67" y1="331.99" x2="188.77" y2="322.99" stroke="#9a9a96" stroke-width="1.8" stroke-linecap="round"/><line x1="166.2" y1="329.66" x2="168.93" y2="315.92" stroke="#f2f2f0" stroke-width="2.5" stroke-linecap="round"/><line x1="144.54" y1="323.22" x2="147.9" y2="314.86" stroke="#9a9a96" stroke-width="1.8" stroke-linecap="round"/><line x1="124.45" y1="312.89" x2="136.27" y2="294.34" stroke="#f2f2f0" stroke-width="3.5" stroke-linecap="round"/><text x="148.09" y="275.78" fill="#f2f2f0" font-size="24" font-weight="500" font-family="Helvetica,Arial,sans-serif" text-anchor="middle" dominant-baseline="central">140</text><line x1="106.6" y1="299.04" x2="112.75" y2="292.47" stroke="#9a9a96" stroke-width="1.8" stroke-linecap="round"/><line x1="91.61" y1="282.14" x2="102.9" y2="273.86" stroke="#f2f2f0" stroke-width="2.5" stroke-linecap="round"/><line x1="80" y1="262.76" x2="88.11" y2="258.87" stroke="#9a9a96" stroke-width="1.8" stroke-linecap="round"/><line x1="72.16" y1="241.58" x2="93.41" y2="235.88" stroke="#f2f2f0" stroke-width="3.5" stroke-linecap="round"/><text x="114.66" y="230.19" fill="#f2f2f0" font-size="24" font-weight="500" font-family="Helvetica,Arial,sans-serif" text-anchor="middle" dominant-baseline="central">160</text><line x1="68.36" y1="219.31" x2="77.33" y2="218.62" stroke="#9a9a96" stroke-width="1.8" stroke-linecap="round"/><line x1="68.73" y1="196.72" x2="82.64" y2="198.24" stroke="#f2f2f0" stroke-width="2.5" stroke-linecap="round"/><line x1="73.25" y1="174.59" x2="81.87" y2="177.2" stroke="#9a9a96" stroke-width="1.8" stroke-linecap="round"/><line x1="81.78" y1="153.67" x2="101.3" y2="163.83" stroke="#f2f2f0" stroke-width="3.5" stroke-linecap="round"/><text x="120.81" y="173.98" fill="#f2f2f0" font-size="24" font-weight="500" font-family="Helvetica,Arial,sans-serif" text-anchor="middle" dominant-baseline="central">180</text><line x1="94.03" y1="134.68" x2="101.11" y2="140.24" stroke="#9a9a96" stroke-width="1.8" stroke-linecap="round"/><line x1="109.56" y1="118.28" x2="118.79" y2="128.8" stroke="#f2f2f0" stroke-width="2.5" stroke-linecap="round"/><line x1="127.85" y1="105.02" x2="132.44" y2="112.76" stroke="#9a9a96" stroke-width="1.8" stroke-linecap="round"/><line x1="148.27" y1="95.36" x2="155.8" y2="116.03" stroke="#f2f2f0" stroke-width="3.5" stroke-linecap="round"/><text x="163.32" y="136.7" fill="#f2f2f0" font-size="24" font-weight="500" font-family="Helvetica,Arial,sans-serif" text-anchor="middle" dominant-baseline="central">200</text><text x="190" y="268" fill="#9a9a96" font-size="17" font-weight="400" font-family="Helvetica,Arial,sans-serif" text-anchor="middle" dominant-baseline="central">KNOTS</text><polygon points="263.43,291.91 186.65,213 171.31,189.15 193.35,207" fill="#ffffff"/><circle cx="190" cy="210" r="11" fill="#d8d8d4" stroke="#55555a" stroke-width="2"/><text x="190" y="404" fill="#888884" font-size="30" font-weight="600" font-family="Helvetica,Arial,sans-serif" text-anchor="middle">ASI</text><text x="190" y="434" fill="#888884" font-size="21" font-weight="400" font-family="Helvetica,Arial,sans-serif" text-anchor="middle">Airspeed indicator</text><circle cx="600" cy="210" r="152" fill="#26262b"/><circle cx="600" cy="210" r="146" fill="none" stroke="#3a3a41" stroke-width="2"/><circle cx="600" cy="210" r="140" fill="#101014"/><clipPath id="aiclip"><circle cx="600" cy="210" r="134"/></clipPath><g clip-path="url(#aiclip)"><rect x="460" y="30" width="280" height="180" fill="#2f6fa8"/><rect x="460" y="210" width="280" height="180" fill="#7a4a22"/><line x1="460" y1="210" x2="740" y2="210" stroke="#f2f2f0" stroke-width="3"/><line x1="574" y1="190" x2="626" y2="190" stroke="#f2f2f0" stroke-width="2"/><line x1="574" y1="230" x2="626" y2="230" stroke="#f2f2f0" stroke-width="2"/><line x1="554" y1="170" x2="646" y2="170" stroke="#f2f2f0" stroke-width="2"/><line x1="554" y1="250" x2="646" y2="250" stroke="#f2f2f0" stroke-width="2"/><line x1="574" y1="150" x2="626" y2="150" stroke="#f2f2f0" stroke-width="2"/><line x1="574" y1="270" x2="626" y2="270" stroke="#f2f2f0" stroke-width="2"/><line x1="554" y1="130" x2="646" y2="130" stroke="#f2f2f0" stroke-width="2"/><line x1="554" y1="290" x2="646" y2="290" stroke="#f2f2f0" stroke-width="2"/></g><line x1="483.95" y1="143" x2="503.01" y2="154" stroke="#f2f2f0" stroke-width="3.5" stroke-linecap="round"/><line x1="505.25" y1="115.25" x2="515.15" y2="125.15" stroke="#f2f2f0" stroke-width="2.2" stroke-linecap="round"/><line x1="533" y1="93.95" x2="544" y2="113.01" stroke="#f2f2f0" stroke-width="3.5" stroke-linecap="round"/><line x1="554.17" y1="84.08" x2="558.96" y2="97.24" stroke="#f2f2f0" stroke-width="2.2" stroke-linecap="round"/><line x1="576.73" y1="78.04" x2="579.16" y2="91.82" stroke="#f2f2f0" stroke-width="2.2" stroke-linecap="round"/><line x1="623.27" y1="78.04" x2="620.84" y2="91.82" stroke="#f2f2f0" stroke-width="2.2" stroke-linecap="round"/><line x1="645.83" y1="84.08" x2="641.04" y2="97.24" stroke="#f2f2f0" stroke-width="2.2" stroke-linecap="round"/><line x1="667" y1="93.95" x2="656" y2="113.01" stroke="#f2f2f0" stroke-width="3.5" stroke-linecap="round"/><line x1="694.75" y1="115.25" x2="684.85" y2="125.15" stroke="#f2f2f0" stroke-width="2.2" stroke-linecap="round"/><line x1="716.05" y1="143" x2="696.99" y2="154" stroke="#f2f2f0" stroke-width="3.5" stroke-linecap="round"/><polygon points="600,78 590.41,100.42 609.59,100.42" fill="#f2f2f0"/><path d="M 505 210 h 55 l 12 14 l 12 -14 h 55" fill="none" stroke="#e8c53a" stroke-width="6" stroke-linejoin="round" stroke-linecap="round"/><rect x="595" y="205" width="10" height="10" fill="#e8c53a"/><text x="600" y="404" fill="#888884" font-size="30" font-weight="600" font-family="Helvetica,Arial,sans-serif" text-anchor="middle">AI</text><text x="600" y="434" fill="#888884" font-size="21" font-weight="400" font-family="Helvetica,Arial,sans-serif" text-anchor="middle">Attitude indicator</text><circle cx="1010" cy="210" r="152" fill="#26262b"/><circle cx="1010" cy="210" r="146" fill="none" stroke="#3a3a41" stroke-width="2"/><circle cx="1010" cy="210" r="140" fill="#101014"/><line x1="1010" y1="82" x2="1010" y2="104" stroke="#f2f2f0" stroke-width="4" stroke-linecap="round"/><text x="1010" y="128" fill="#f2f2f0" font-size="30" font-weight="600" font-family="Helvetica,Arial,sans-serif" text-anchor="middle" dominant-baseline="central">0</text><line x1="1026.04" y1="83.01" x2="1024.54" y2="94.91" stroke="#9a9a96" stroke-width="2" stroke-linecap="round"/><line x1="1041.83" y1="86.02" x2="1038.85" y2="97.64" stroke="#9a9a96" stroke-width="2" stroke-linecap="round"/><line x1="1057.12" y1="90.99" x2="1052.7" y2="102.15" stroke="#9a9a96" stroke-width="2" stroke-linecap="round"/><line x1="1071.66" y1="97.83" x2="1065.88" y2="108.35" stroke="#9a9a96" stroke-width="2" stroke-linecap="round"/><line x1="1085.24" y1="106.45" x2="1072.31" y2="124.24" stroke="#f2f2f0" stroke-width="4" stroke-linecap="round"/><text x="1058.2" y="143.66" fill="#f2f2f0" font-size="30" font-weight="600" font-family="Helvetica,Arial,sans-serif" text-anchor="middle" dominant-baseline="central">1</text><line x1="1097.62" y1="116.69" x2="1089.41" y2="125.44" stroke="#9a9a96" stroke-width="2" stroke-linecap="round"/><line x1="1108.63" y1="128.41" x2="1099.38" y2="136.06" stroke="#9a9a96" stroke-width="2" stroke-linecap="round"/><line x1="1118.07" y1="141.41" x2="1107.94" y2="147.84" stroke="#9a9a96" stroke-width="2" stroke-linecap="round"/><line x1="1125.82" y1="155.5" x2="1114.96" y2="160.61" stroke="#9a9a96" stroke-width="2" stroke-linecap="round"/><line x1="1131.74" y1="170.45" x2="1110.81" y2="177.24" stroke="#f2f2f0" stroke-width="4" stroke-linecap="round"/><text x="1087.99" y="184.66" fill="#f2f2f0" font-size="30" font-weight="600" font-family="Helvetica,Arial,sans-serif" text-anchor="middle" dominant-baseline="central">2</text><line x1="1135.73" y1="186.02" x2="1123.95" y2="188.26" stroke="#9a9a96" stroke-width="2" stroke-linecap="round"/><line x1="1137.75" y1="201.96" x2="1125.77" y2="202.72" stroke="#9a9a96" stroke-width="2" stroke-linecap="round"/><line x1="1137.75" y1="218.04" x2="1125.77" y2="217.28" stroke="#9a9a96" stroke-width="2" stroke-linecap="round"/><line x1="1135.73" y1="233.98" x2="1123.95" y2="231.74" stroke="#9a9a96" stroke-width="2" stroke-linecap="round"/><line x1="1131.74" y1="249.55" x2="1110.81" y2="242.76" stroke="#f2f2f0" stroke-width="4" stroke-linecap="round"/><text x="1087.99" y="235.34" fill="#f2f2f0" font-size="30" font-weight="600" font-family="Helvetica,Arial,sans-serif" text-anchor="middle" dominant-baseline="central">3</text><line x1="1125.82" y1="264.5" x2="1114.96" y2="259.39" stroke="#9a9a96" stroke-width="2" stroke-linecap="round"/><line x1="1118.07" y1="278.59" x2="1107.94" y2="272.16" stroke="#9a9a96" stroke-width="2" stroke-linecap="round"/><line x1="1108.63" y1="291.59" x2="1099.38" y2="283.94" stroke="#9a9a96" stroke-width="2" stroke-linecap="round"/><line x1="1097.62" y1="303.31" x2="1089.41" y2="294.56" stroke="#9a9a96" stroke-width="2" stroke-linecap="round"/><line x1="1085.24" y1="313.55" x2="1072.31" y2="295.76" stroke="#f2f2f0" stroke-width="4" stroke-linecap="round"/><text x="1058.2" y="276.34" fill="#f2f2f0" font-size="30" font-weight="600" font-family="Helvetica,Arial,sans-serif" text-anchor="middle" dominant-baseline="central">4</text><line x1="1071.66" y1="322.17" x2="1065.88" y2="311.65" stroke="#9a9a96" stroke-width="2" stroke-linecap="round"/><line x1="1057.12" y1="329.01" x2="1052.7" y2="317.85" stroke="#9a9a96" stroke-width="2" stroke-linecap="round"/><line x1="1041.83" y1="333.98" x2="1038.85" y2="322.36" stroke="#9a9a96" stroke-width="2" stroke-linecap="round"/><line x1="1026.04" y1="336.99" x2="1024.54" y2="325.09" stroke="#9a9a96" stroke-width="2" stroke-linecap="round"/><line x1="1010" y1="338" x2="1010" y2="316" stroke="#f2f2f0" stroke-width="4" stroke-linecap="round"/><text x="1010" y="292" fill="#f2f2f0" font-size="30" font-weight="600" font-family="Helvetica,Arial,sans-serif" text-anchor="middle" dominant-baseline="central">5</text><line x1="993.96" y1="336.99" x2="995.46" y2="325.09" stroke="#9a9a96" stroke-width="2" stroke-linecap="round"/><line x1="978.17" y1="333.98" x2="981.15" y2="322.36" stroke="#9a9a96" stroke-width="2" stroke-linecap="round"/><line x1="962.88" y1="329.01" x2="967.3" y2="317.85" stroke="#9a9a96" stroke-width="2" stroke-linecap="round"/><line x1="948.34" y1="322.17" x2="954.12" y2="311.65" stroke="#9a9a96" stroke-width="2" stroke-linecap="round"/><line x1="934.76" y1="313.55" x2="947.69" y2="295.76" stroke="#f2f2f0" stroke-width="4" stroke-linecap="round"/><text x="961.8" y="276.34" fill="#f2f2f0" font-size="30" font-weight="600" font-family="Helvetica,Arial,sans-serif" text-anchor="middle" dominant-baseline="central">6</text><line x1="922.38" y1="303.31" x2="930.59" y2="294.56" stroke="#9a9a96" stroke-width="2" stroke-linecap="round"/><line x1="911.37" y1="291.59" x2="920.62" y2="283.94" stroke="#9a9a96" stroke-width="2" stroke-linecap="round"/><line x1="901.93" y1="278.59" x2="912.06" y2="272.16" stroke="#9a9a96" stroke-width="2" stroke-linecap="round"/><line x1="894.18" y1="264.5" x2="905.04" y2="259.39" stroke="#9a9a96" stroke-width="2" stroke-linecap="round"/><line x1="888.26" y1="249.55" x2="909.19" y2="242.76" stroke="#f2f2f0" stroke-width="4" stroke-linecap="round"/><text x="932.01" y="235.34" fill="#f2f2f0" font-size="30" font-weight="600" font-family="Helvetica,Arial,sans-serif" text-anchor="middle" dominant-baseline="central">7</text><line x1="884.27" y1="233.98" x2="896.05" y2="231.74" stroke="#9a9a96" stroke-width="2" stroke-linecap="round"/><line x1="882.25" y1="218.04" x2="894.23" y2="217.28" stroke="#9a9a96" stroke-width="2" stroke-linecap="round"/><line x1="882.25" y1="201.96" x2="894.23" y2="202.72" stroke="#9a9a96" stroke-width="2" stroke-linecap="round"/><line x1="884.27" y1="186.02" x2="896.05" y2="188.26" stroke="#9a9a96" stroke-width="2" stroke-linecap="round"/><line x1="888.26" y1="170.45" x2="909.19" y2="177.24" stroke="#f2f2f0" stroke-width="4" stroke-linecap="round"/><text x="932.01" y="184.66" fill="#f2f2f0" font-size="30" font-weight="600" font-family="Helvetica,Arial,sans-serif" text-anchor="middle" dominant-baseline="central">8</text><line x1="894.18" y1="155.5" x2="905.04" y2="160.61" stroke="#9a9a96" stroke-width="2" stroke-linecap="round"/><line x1="901.93" y1="141.41" x2="912.06" y2="147.84" stroke="#9a9a96" stroke-width="2" stroke-linecap="round"/><line x1="911.37" y1="128.41" x2="920.62" y2="136.06" stroke="#9a9a96" stroke-width="2" stroke-linecap="round"/><line x1="922.38" y1="116.69" x2="930.59" y2="125.44" stroke="#9a9a96" stroke-width="2" stroke-linecap="round"/><line x1="934.76" y1="106.45" x2="947.69" y2="124.24" stroke="#f2f2f0" stroke-width="4" stroke-linecap="round"/><text x="961.8" y="143.66" fill="#f2f2f0" font-size="30" font-weight="600" font-family="Helvetica,Arial,sans-serif" text-anchor="middle" dominant-baseline="central">9</text><line x1="948.34" y1="97.83" x2="954.12" y2="108.35" stroke="#9a9a96" stroke-width="2" stroke-linecap="round"/><line x1="962.88" y1="90.99" x2="967.3" y2="102.15" stroke="#9a9a96" stroke-width="2" stroke-linecap="round"/><line x1="978.17" y1="86.02" x2="981.15" y2="97.64" stroke="#9a9a96" stroke-width="2" stroke-linecap="round"/><line x1="993.96" y1="83.01" x2="995.46" y2="94.91" stroke="#9a9a96" stroke-width="2" stroke-linecap="round"/><rect x="1048" y="194" width="76" height="32" rx="3" fill="#000" stroke="#9a9a96" stroke-width="1.5"/><text x="1086" y="211" fill="#f2f2f0" font-size="21" font-family="Helvetica,Arial,sans-serif" text-anchor="middle" dominant-baseline="central">29.92</text><text x="1010" y="272" fill="#9a9a96" font-size="17" font-weight="400" font-family="Helvetica,Arial,sans-serif" text-anchor="middle" dominant-baseline="central">FEET</text><polygon points="1024.83,255.65 1001.44,212.78 1018.56,207.22" fill="#f2f2f0"/><polygon points="1034.1,284.18 1003.34,212.16 1003.2,189.08 1016.66,207.84" fill="#ffffff"/><polygon points="1010,328 1006,210 1010,184 1014,210" fill="#ffffff"/><circle cx="1010" cy="210" r="11" fill="#d8d8d4" stroke="#55555a" stroke-width="2"/><text x="1010" y="404" fill="#888884" font-size="30" font-weight="600" font-family="Helvetica,Arial,sans-serif" text-anchor="middle">ALT</text><text x="1010" y="434" fill="#888884" font-size="21" font-weight="400" font-family="Helvetica,Arial,sans-serif" text-anchor="middle">Altimeter</text><circle cx="190" cy="620" r="152" fill="#26262b"/><circle cx="190" cy="620" r="146" fill="none" stroke="#3a3a41" stroke-width="2"/><circle cx="190" cy="620" r="140" fill="#101014"/><line x1="58" y1="620" x2="84" y2="620" stroke="#f2f2f0" stroke-width="4" stroke-linecap="round"/><line x1="322" y1="620" x2="296" y2="620" stroke="#f2f2f0" stroke-width="4" stroke-linecap="round"/><line x1="75.68" y1="554" x2="98.2" y2="567" stroke="#f2f2f0" stroke-width="4" stroke-linecap="round"/><line x1="304.32" y1="554" x2="281.8" y2="567" stroke="#f2f2f0" stroke-width="4" stroke-linecap="round"/><text x="107.9" y="598" fill="#f2f2f0" font-size="24" font-weight="500" font-family="Helvetica,Arial,sans-serif" text-anchor="middle" dominant-baseline="central">L</text><text x="272.1" y="598" fill="#f2f2f0" font-size="24" font-weight="500" font-family="Helvetica,Arial,sans-serif" text-anchor="middle" dominant-baseline="central">R</text><line x1="88" y1="594" x2="292" y2="594" stroke="#f2f2f0" stroke-width="7" stroke-linecap="round"/><circle cx="190" cy="594" r="13" fill="none" stroke="#f2f2f0" stroke-width="6"/><line x1="190" y1="581" x2="190" y2="562" stroke="#f2f2f0" stroke-width="6" stroke-linecap="round"/><path d="M 120 694 A 150 150 0 0 0 260 694" fill="none" stroke="#1c1c20" stroke-width="30" stroke-linecap="round"/><path d="M 120 694 A 150 150 0 0 0 260 694" fill="none" stroke="#9a9a96" stroke-width="1.5"/><line x1="175" y1="708" x2="175" y2="724" stroke="#f2f2f0" stroke-width="2.5"/><line x1="205" y1="708" x2="205" y2="724" stroke="#f2f2f0" stroke-width="2.5"/><circle cx="190" cy="716" r="12" fill="#2b2b30" stroke="#0a0a0c" stroke-width="1"/><text x="190" y="638" fill="#9a9a96" font-size="15" font-family="Helvetica,Arial,sans-serif" text-anchor="middle">2 MIN TURN</text><text x="190" y="814" fill="#888884" font-size="30" font-weight="600" font-family="Helvetica,Arial,sans-serif" text-anchor="middle">TC</text><text x="190" y="844" fill="#888884" font-size="21" font-weight="400" font-family="Helvetica,Arial,sans-serif" text-anchor="middle">Turn coordinator</text><circle cx="600" cy="620" r="152" fill="#26262b"/><circle cx="600" cy="620" r="146" fill="none" stroke="#3a3a41" stroke-width="2"/><circle cx="600" cy="620" r="140" fill="#101014"/><line x1="600" y1="490" x2="600" y2="512" stroke="#f2f2f0" stroke-width="3.5" stroke-linecap="round"/><text x="600" y="538" fill="#f2f2f0" font-size="30" font-weight="600" font-family="Helvetica,Arial,sans-serif" text-anchor="middle" dominant-baseline="central" transform="rotate(0 600 538)">N</text><line x1="611.33" y1="490.49" x2="610.11" y2="504.44" stroke="#9a9a96" stroke-width="2" stroke-linecap="round"/><line x1="622.57" y1="491.97" x2="620.14" y2="505.76" stroke="#9a9a96" stroke-width="2" stroke-linecap="round"/><line x1="633.65" y1="494.43" x2="630.02" y2="507.95" stroke="#9a9a96" stroke-width="2" stroke-linecap="round"/><line x1="644.46" y1="497.84" x2="639.67" y2="511" stroke="#9a9a96" stroke-width="2" stroke-linecap="round"/><line x1="654.94" y1="502.18" x2="649.02" y2="514.87" stroke="#9a9a96" stroke-width="2" stroke-linecap="round"/><line x1="665" y1="507.42" x2="654" y2="526.47" stroke="#f2f2f0" stroke-width="3.5" stroke-linecap="round"/><text x="641" y="548.99" fill="#f2f2f0" font-size="24" font-weight="600" font-family="Helvetica,Arial,sans-serif" text-anchor="middle" dominant-baseline="central" transform="rotate(30 641 548.99)">3</text><line x1="674.56" y1="513.51" x2="666.53" y2="524.98" stroke="#9a9a96" stroke-width="2" stroke-linecap="round"/><line x1="683.56" y1="520.41" x2="674.56" y2="531.14" stroke="#9a9a96" stroke-width="2" stroke-linecap="round"/><line x1="691.92" y1="528.08" x2="682.02" y2="537.98" stroke="#9a9a96" stroke-width="2" stroke-linecap="round"/><line x1="699.59" y1="536.44" x2="688.86" y2="545.44" stroke="#9a9a96" stroke-width="2" stroke-linecap="round"/><line x1="706.49" y1="545.44" x2="695.02" y2="553.47" stroke="#9a9a96" stroke-width="2" stroke-linecap="round"/><line x1="712.58" y1="555" x2="693.53" y2="566" stroke="#f2f2f0" stroke-width="3.5" stroke-linecap="round"/><text x="671.01" y="579" fill="#f2f2f0" font-size="24" font-weight="600" font-family="Helvetica,Arial,sans-serif" text-anchor="middle" dominant-baseline="central" transform="rotate(60 671.01 579)">6</text><line x1="717.82" y1="565.06" x2="705.13" y2="570.98" stroke="#9a9a96" stroke-width="2" stroke-linecap="round"/><line x1="722.16" y1="575.54" x2="709" y2="580.33" stroke="#9a9a96" stroke-width="2" stroke-linecap="round"/><line x1="725.57" y1="586.35" x2="712.05" y2="589.98" stroke="#9a9a96" stroke-width="2" stroke-linecap="round"/><line x1="728.03" y1="597.43" x2="714.24" y2="599.86" stroke="#9a9a96" stroke-width="2" stroke-linecap="round"/><line x1="729.51" y1="608.67" x2="715.56" y2="609.89" stroke="#9a9a96" stroke-width="2" stroke-linecap="round"/><line x1="730" y1="620" x2="708" y2="620" stroke="#f2f2f0" stroke-width="3.5" stroke-linecap="round"/><text x="682" y="620" fill="#f2f2f0" font-size="30" font-weight="600" font-family="Helvetica,Arial,sans-serif" text-anchor="middle" dominant-baseline="central" transform="rotate(90 682 620)">E</text><line x1="729.51" y1="631.33" x2="715.56" y2="630.11" stroke="#9a9a96" stroke-width="2" stroke-linecap="round"/><line x1="728.03" y1="642.57" x2="714.24" y2="640.14" stroke="#9a9a96" stroke-width="2" stroke-linecap="round"/><line x1="725.57" y1="653.65" x2="712.05" y2="650.02" stroke="#9a9a96" stroke-width="2" stroke-linecap="round"/><line x1="722.16" y1="664.46" x2="709" y2="659.67" stroke="#9a9a96" stroke-width="2" stroke-linecap="round"/><line x1="717.82" y1="674.94" x2="705.13" y2="669.02" stroke="#9a9a96" stroke-width="2" stroke-linecap="round"/><line x1="712.58" y1="685" x2="693.53" y2="674" stroke="#f2f2f0" stroke-width="3.5" stroke-linecap="round"/><text x="671.01" y="661" fill="#f2f2f0" font-size="24" font-weight="600" font-family="Helvetica,Arial,sans-serif" text-anchor="middle" dominant-baseline="central" transform="rotate(120 671.01 661)">12</text><line x1="706.49" y1="694.56" x2="695.02" y2="686.53" stroke="#9a9a96" stroke-width="2" stroke-linecap="round"/><line x1="699.59" y1="703.56" x2="688.86" y2="694.56" stroke="#9a9a96" stroke-width="2" stroke-linecap="round"/><line x1="691.92" y1="711.92" x2="682.02" y2="702.02" stroke="#9a9a96" stroke-width="2" stroke-linecap="round"/><line x1="683.56" y1="719.59" x2="674.56" y2="708.86" stroke="#9a9a96" stroke-width="2" stroke-linecap="round"/><line x1="674.56" y1="726.49" x2="666.53" y2="715.02" stroke="#9a9a96" stroke-width="2" stroke-linecap="round"/><line x1="665" y1="732.58" x2="654" y2="713.53" stroke="#f2f2f0" stroke-width="3.5" stroke-linecap="round"/><text x="641" y="691.01" fill="#f2f2f0" font-size="24" font-weight="600" font-family="Helvetica,Arial,sans-serif" text-anchor="middle" dominant-baseline="central" transform="rotate(150 641 691.01)">15</text><line x1="654.94" y1="737.82" x2="649.02" y2="725.13" stroke="#9a9a96" stroke-width="2" stroke-linecap="round"/><line x1="644.46" y1="742.16" x2="639.67" y2="729" stroke="#9a9a96" stroke-width="2" stroke-linecap="round"/><line x1="633.65" y1="745.57" x2="630.02" y2="732.05" stroke="#9a9a96" stroke-width="2" stroke-linecap="round"/><line x1="622.57" y1="748.03" x2="620.14" y2="734.24" stroke="#9a9a96" stroke-width="2" stroke-linecap="round"/><line x1="611.33" y1="749.51" x2="610.11" y2="735.56" stroke="#9a9a96" stroke-width="2" stroke-linecap="round"/><line x1="600" y1="750" x2="600" y2="728" stroke="#f2f2f0" stroke-width="3.5" stroke-linecap="round"/><text x="600" y="702" fill="#f2f2f0" font-size="30" font-weight="600" font-family="Helvetica,Arial,sans-serif" text-anchor="middle" dominant-baseline="central" transform="rotate(180 600 702)">S</text><line x1="588.67" y1="749.51" x2="589.89" y2="735.56" stroke="#9a9a96" stroke-width="2" stroke-linecap="round"/><line x1="577.43" y1="748.03" x2="579.86" y2="734.24" stroke="#9a9a96" stroke-width="2" stroke-linecap="round"/><line x1="566.35" y1="745.57" x2="569.98" y2="732.05" stroke="#9a9a96" stroke-width="2" stroke-linecap="round"/><line x1="555.54" y1="742.16" x2="560.33" y2="729" stroke="#9a9a96" stroke-width="2" stroke-linecap="round"/><line x1="545.06" y1="737.82" x2="550.98" y2="725.13" stroke="#9a9a96" stroke-width="2" stroke-linecap="round"/><line x1="535" y1="732.58" x2="546" y2="713.53" stroke="#f2f2f0" stroke-width="3.5" stroke-linecap="round"/><text x="559" y="691.01" fill="#f2f2f0" font-size="24" font-weight="600" font-family="Helvetica,Arial,sans-serif" text-anchor="middle" dominant-baseline="central" transform="rotate(210 559 691.01)">21</text><line x1="525.44" y1="726.49" x2="533.47" y2="715.02" stroke="#9a9a96" stroke-width="2" stroke-linecap="round"/><line x1="516.44" y1="719.59" x2="525.44" y2="708.86" stroke="#9a9a96" stroke-width="2" stroke-linecap="round"/><line x1="508.08" y1="711.92" x2="517.98" y2="702.02" stroke="#9a9a96" stroke-width="2" stroke-linecap="round"/><line x1="500.41" y1="703.56" x2="511.14" y2="694.56" stroke="#9a9a96" stroke-width="2" stroke-linecap="round"/><line x1="493.51" y1="694.56" x2="504.98" y2="686.53" stroke="#9a9a96" stroke-width="2" stroke-linecap="round"/><line x1="487.42" y1="685" x2="506.47" y2="674" stroke="#f2f2f0" stroke-width="3.5" stroke-linecap="round"/><text x="528.99" y="661" fill="#f2f2f0" font-size="24" font-weight="600" font-family="Helvetica,Arial,sans-serif" text-anchor="middle" dominant-baseline="central" transform="rotate(240 528.99 661)">24</text><line x1="482.18" y1="674.94" x2="494.87" y2="669.02" stroke="#9a9a96" stroke-width="2" stroke-linecap="round"/><line x1="477.84" y1="664.46" x2="491" y2="659.67" stroke="#9a9a96" stroke-width="2" stroke-linecap="round"/><line x1="474.43" y1="653.65" x2="487.95" y2="650.02" stroke="#9a9a96" stroke-width="2" stroke-linecap="round"/><line x1="471.97" y1="642.57" x2="485.76" y2="640.14" stroke="#9a9a96" stroke-width="2" stroke-linecap="round"/><line x1="470.49" y1="631.33" x2="484.44" y2="630.11" stroke="#9a9a96" stroke-width="2" stroke-linecap="round"/><line x1="470" y1="620" x2="492" y2="620" stroke="#f2f2f0" stroke-width="3.5" stroke-linecap="round"/><text x="518" y="620" fill="#f2f2f0" font-size="30" font-weight="600" font-family="Helvetica,Arial,sans-serif" text-anchor="middle" dominant-baseline="central" transform="rotate(270 518 620)">W</text><line x1="470.49" y1="608.67" x2="484.44" y2="609.89" stroke="#9a9a96" stroke-width="2" stroke-linecap="round"/><line x1="471.97" y1="597.43" x2="485.76" y2="599.86" stroke="#9a9a96" stroke-width="2" stroke-linecap="round"/><line x1="474.43" y1="586.35" x2="487.95" y2="589.98" stroke="#9a9a96" stroke-width="2" stroke-linecap="round"/><line x1="477.84" y1="575.54" x2="491" y2="580.33" stroke="#9a9a96" stroke-width="2" stroke-linecap="round"/><line x1="482.18" y1="565.06" x2="494.87" y2="570.98" stroke="#9a9a96" stroke-width="2" stroke-linecap="round"/><line x1="487.42" y1="555" x2="506.47" y2="566" stroke="#f2f2f0" stroke-width="3.5" stroke-linecap="round"/><text x="528.99" y="579" fill="#f2f2f0" font-size="24" font-weight="600" font-family="Helvetica,Arial,sans-serif" text-anchor="middle" dominant-baseline="central" transform="rotate(300 528.99 579)">30</text><line x1="493.51" y1="545.44" x2="504.98" y2="553.47" stroke="#9a9a96" stroke-width="2" stroke-linecap="round"/><line x1="500.41" y1="536.44" x2="511.14" y2="545.44" stroke="#9a9a96" stroke-width="2" stroke-linecap="round"/><line x1="508.08" y1="528.08" x2="517.98" y2="537.98" stroke="#9a9a96" stroke-width="2" stroke-linecap="round"/><line x1="516.44" y1="520.41" x2="525.44" y2="531.14" stroke="#9a9a96" stroke-width="2" stroke-linecap="round"/><line x1="525.44" y1="513.51" x2="533.47" y2="524.98" stroke="#9a9a96" stroke-width="2" stroke-linecap="round"/><line x1="535" y1="507.42" x2="546" y2="526.47" stroke="#f2f2f0" stroke-width="3.5" stroke-linecap="round"/><text x="559" y="548.99" fill="#f2f2f0" font-size="24" font-weight="600" font-family="Helvetica,Arial,sans-serif" text-anchor="middle" dominant-baseline="central" transform="rotate(330 559 548.99)">33</text><line x1="545.06" y1="502.18" x2="550.98" y2="514.87" stroke="#9a9a96" stroke-width="2" stroke-linecap="round"/><line x1="555.54" y1="497.84" x2="560.33" y2="511" stroke="#9a9a96" stroke-width="2" stroke-linecap="round"/><line x1="566.35" y1="494.43" x2="569.98" y2="507.95" stroke="#9a9a96" stroke-width="2" stroke-linecap="round"/><line x1="577.43" y1="491.97" x2="579.86" y2="505.76" stroke="#9a9a96" stroke-width="2" stroke-linecap="round"/><line x1="588.67" y1="490.49" x2="589.89" y2="504.44" stroke="#9a9a96" stroke-width="2" stroke-linecap="round"/><polygon points="600,484 589,466 611,466" fill="#e8c53a"/><line x1="600" y1="562" x2="600" y2="678" stroke="#f2f2f0" stroke-width="6" stroke-linecap="round"/><line x1="542" y1="614" x2="658" y2="614" stroke="#f2f2f0" stroke-width="6" stroke-linecap="round"/><line x1="576" y1="666" x2="624" y2="666" stroke="#f2f2f0" stroke-width="5" stroke-linecap="round"/><text x="600" y="814" fill="#888884" font-size="30" font-weight="600" font-family="Helvetica,Arial,sans-serif" text-anchor="middle">HI / DG</text><text x="600" y="844" fill="#888884" font-size="21" font-weight="400" font-family="Helvetica,Arial,sans-serif" text-anchor="middle">Heading indicator</text><circle cx="1010" cy="620" r="152" fill="#26262b"/><circle cx="1010" cy="620" r="146" fill="none" stroke="#3a3a41" stroke-width="2"/><circle cx="1010" cy="620" r="140" fill="#101014"/><line x1="1138" y1="620" x2="1116" y2="620" stroke="#f2f2f0" stroke-width="3.5" stroke-linecap="round"/><text x="1092" y="620" fill="#f2f2f0" font-size="24" font-weight="500" font-family="Helvetica,Arial,sans-serif" text-anchor="middle" dominant-baseline="central">20</text><line x1="1136.42" y1="640.02" x2="1124.57" y2="638.15" stroke="#9a9a96" stroke-width="2" stroke-linecap="round"/><line x1="1131.74" y1="659.55" x2="1120.32" y2="655.85" stroke="#9a9a96" stroke-width="2" stroke-linecap="round"/><line x1="1124.05" y1="678.11" x2="1113.36" y2="672.66" stroke="#9a9a96" stroke-width="2" stroke-linecap="round"/><line x1="1113.55" y1="695.24" x2="1103.85" y2="688.18" stroke="#9a9a96" stroke-width="2" stroke-linecap="round"/><line x1="1100.51" y1="710.51" x2="1084.95" y2="694.95" stroke="#f2f2f0" stroke-width="3.5" stroke-linecap="round"/><text x="1067.98" y="677.98" fill="#f2f2f0" font-size="24" font-weight="500" font-family="Helvetica,Arial,sans-serif" text-anchor="middle" dominant-baseline="central">15</text><line x1="1085.24" y1="723.55" x2="1078.18" y2="713.85" stroke="#9a9a96" stroke-width="2" stroke-linecap="round"/><line x1="1068.11" y1="734.05" x2="1062.66" y2="723.36" stroke="#9a9a96" stroke-width="2" stroke-linecap="round"/><line x1="1049.55" y1="741.74" x2="1045.85" y2="730.32" stroke="#9a9a96" stroke-width="2" stroke-linecap="round"/><line x1="1030.02" y1="746.42" x2="1028.15" y2="734.57" stroke="#9a9a96" stroke-width="2" stroke-linecap="round"/><line x1="1010" y1="748" x2="1010" y2="726" stroke="#f2f2f0" stroke-width="3.5" stroke-linecap="round"/><text x="1010" y="702" fill="#f2f2f0" font-size="24" font-weight="500" font-family="Helvetica,Arial,sans-serif" text-anchor="middle" dominant-baseline="central">10</text><line x1="989.98" y1="746.42" x2="991.85" y2="734.57" stroke="#9a9a96" stroke-width="2" stroke-linecap="round"/><line x1="970.45" y1="741.74" x2="974.15" y2="730.32" stroke="#9a9a96" stroke-width="2" stroke-linecap="round"/><line x1="951.89" y1="734.05" x2="957.34" y2="723.36" stroke="#9a9a96" stroke-width="2" stroke-linecap="round"/><line x1="934.76" y1="723.55" x2="941.82" y2="713.85" stroke="#9a9a96" stroke-width="2" stroke-linecap="round"/><line x1="919.49" y1="710.51" x2="935.05" y2="694.95" stroke="#f2f2f0" stroke-width="3.5" stroke-linecap="round"/><text x="952.02" y="677.98" fill="#f2f2f0" font-size="24" font-weight="500" font-family="Helvetica,Arial,sans-serif" text-anchor="middle" dominant-baseline="central">5</text><line x1="906.45" y1="695.24" x2="916.15" y2="688.18" stroke="#9a9a96" stroke-width="2" stroke-linecap="round"/><line x1="895.95" y1="678.11" x2="906.64" y2="672.66" stroke="#9a9a96" stroke-width="2" stroke-linecap="round"/><line x1="888.26" y1="659.55" x2="899.68" y2="655.85" stroke="#9a9a96" stroke-width="2" stroke-linecap="round"/><line x1="883.58" y1="640.02" x2="895.43" y2="638.15" stroke="#9a9a96" stroke-width="2" stroke-linecap="round"/><line x1="882" y1="620" x2="904" y2="620" stroke="#f2f2f0" stroke-width="3.5" stroke-linecap="round"/><text x="928" y="620" fill="#f2f2f0" font-size="24" font-weight="500" font-family="Helvetica,Arial,sans-serif" text-anchor="middle" dominant-baseline="central">0</text><line x1="883.58" y1="599.98" x2="895.43" y2="601.85" stroke="#9a9a96" stroke-width="2" stroke-linecap="round"/><line x1="888.26" y1="580.45" x2="899.68" y2="584.15" stroke="#9a9a96" stroke-width="2" stroke-linecap="round"/><line x1="895.95" y1="561.89" x2="906.64" y2="567.34" stroke="#9a9a96" stroke-width="2" stroke-linecap="round"/><line x1="906.45" y1="544.76" x2="916.15" y2="551.82" stroke="#9a9a96" stroke-width="2" stroke-linecap="round"/><line x1="919.49" y1="529.49" x2="935.05" y2="545.05" stroke="#f2f2f0" stroke-width="3.5" stroke-linecap="round"/><text x="952.02" y="562.02" fill="#f2f2f0" font-size="24" font-weight="500" font-family="Helvetica,Arial,sans-serif" text-anchor="middle" dominant-baseline="central">5</text><line x1="934.76" y1="516.45" x2="941.82" y2="526.15" stroke="#9a9a96" stroke-width="2" stroke-linecap="round"/><line x1="951.89" y1="505.95" x2="957.34" y2="516.64" stroke="#9a9a96" stroke-width="2" stroke-linecap="round"/><line x1="970.45" y1="498.26" x2="974.15" y2="509.68" stroke="#9a9a96" stroke-width="2" stroke-linecap="round"/><line x1="989.98" y1="493.58" x2="991.85" y2="505.43" stroke="#9a9a96" stroke-width="2" stroke-linecap="round"/><line x1="1010" y1="492" x2="1010" y2="514" stroke="#f2f2f0" stroke-width="3.5" stroke-linecap="round"/><text x="1010" y="538" fill="#f2f2f0" font-size="24" font-weight="500" font-family="Helvetica,Arial,sans-serif" text-anchor="middle" dominant-baseline="central">10</text><line x1="1030.02" y1="493.58" x2="1028.15" y2="505.43" stroke="#9a9a96" stroke-width="2" stroke-linecap="round"/><line x1="1049.55" y1="498.26" x2="1045.85" y2="509.68" stroke="#9a9a96" stroke-width="2" stroke-linecap="round"/><line x1="1068.11" y1="505.95" x2="1062.66" y2="516.64" stroke="#9a9a96" stroke-width="2" stroke-linecap="round"/><line x1="1085.24" y1="516.45" x2="1078.18" y2="526.15" stroke="#9a9a96" stroke-width="2" stroke-linecap="round"/><line x1="1100.51" y1="529.49" x2="1084.95" y2="545.05" stroke="#f2f2f0" stroke-width="3.5" stroke-linecap="round"/><text x="1067.98" y="562.02" fill="#f2f2f0" font-size="24" font-weight="500" font-family="Helvetica,Arial,sans-serif" text-anchor="middle" dominant-baseline="central">15</text><line x1="1113.55" y1="544.76" x2="1103.85" y2="551.82" stroke="#9a9a96" stroke-width="2" stroke-linecap="round"/><line x1="1124.05" y1="561.89" x2="1113.36" y2="567.34" stroke="#9a9a96" stroke-width="2" stroke-linecap="round"/><line x1="1131.74" y1="580.45" x2="1120.32" y2="584.15" stroke="#9a9a96" stroke-width="2" stroke-linecap="round"/><line x1="1136.42" y1="599.98" x2="1124.57" y2="601.85" stroke="#9a9a96" stroke-width="2" stroke-linecap="round"/><line x1="1138" y1="620" x2="1116" y2="620" stroke="#f2f2f0" stroke-width="3.5" stroke-linecap="round"/><text x="1092" y="620" fill="#f2f2f0" font-size="24" font-weight="500" font-family="Helvetica,Arial,sans-serif" text-anchor="middle" dominant-baseline="central">20</text><text x="1006" y="568" fill="#9a9a96" font-size="16" font-family="Helvetica,Arial,sans-serif" text-anchor="middle">UP</text><text x="1006" y="676" fill="#9a9a96" font-size="16" font-family="Helvetica,Arial,sans-serif" text-anchor="middle">DOWN</text><text x="1006" y="706" fill="#9a9a96" font-size="15" font-family="Helvetica,Arial,sans-serif" text-anchor="middle">100 FT PER MIN</text><polygon points="894,620 1010,616 1036,620 1010,624" fill="#ffffff"/><circle cx="1010" cy="620" r="11" fill="#d8d8d4" stroke="#55555a" stroke-width="2"/><text x="1010" y="814" fill="#888884" font-size="30" font-weight="600" font-family="Helvetica,Arial,sans-serif" text-anchor="middle">VSI</text><text x="1010" y="844" fill="#888884" font-size="21" font-weight="400" font-family="Helvetica,Arial,sans-serif" text-anchor="middle">Vertical speed indicator</text></svg>